<!DOCTYPE svg PUBLIC "-//W3C//DTD SVG 1.1//EN" "http://www.w3.org/Graphics/SVG/1.1/DTD/svg11.dtd">
<!-- Uploaded to: SVG Repo, www.svgrepo.com, Transformed by: SVG Repo Mixer Tools -->
<svg fill="#e0e0e0" height="800px" width="800px" version="1.1" id="Capa_1" xmlns="http://www.w3.org/2000/svg" xmlns:xlink="http://www.w3.org/1999/xlink" viewBox="-6 -6 72.00 72.00" xml:space="preserve" stroke="#e0e0e0">
<g id="SVGRepo_bgCarrier" stroke-width="0"/>
<g id="SVGRepo_tracerCarrier" stroke-linecap="round" stroke-linejoin="round" stroke="#CCCCCC" stroke-width="0.48"/>
<g id="SVGRepo_iconCarrier"> <path d="M0,1l0,58c0,0.552,0.447,1,1,1h58c0.553,0,1-0.448,1-1V1c0-0.552-0.447-1-1-1L1,0C0.447,0,0,0.448,0,1z M53,48 c0,3.86-3.141,7-7,7c-3.519,0-6.432-2.613-6.92-6H8c-0.553,0-1-0.448-1-1s0.447-1,1-1h31.08c0.488-3.387,3.401-6,6.92-6 C49.859,41,53,44.14,53,48z M35.92,29H52c0.553,0,1,0.448,1,1s-0.447,1-1,1H35.92c-0.488,3.387-3.401,6-6.92,6s-6.432-2.613-6.92-6 H8c-0.553,0-1-0.448-1-1s0.447-1,1-1h14.08c0.488-3.387,3.401-6,6.92-6S35.432,25.613,35.92,29z M20.92,11H52c0.553,0,1,0.448,1,1 s-0.447,1-1,1H20.92c-0.488,3.387-3.401,6-6.92,6c-3.859,0-7-3.14-7-7s3.141-7,7-7C17.519,5,20.432,7.613,20.92,11z"/> </g>
</svg>